<svg width="248" height="58" viewBox="0 0 248 58" fill="none" xmlns="http://www.w3.org/2000/svg">
<path d="M0 0H38.5627C45.5647 0 51.2409 5.6762 51.2409 12.6782V38.5627C51.2409 45.5647 45.5647 51.2409 38.5627 51.2409H0V0Z" fill="#3752FD"/>
<path d="M10.0369 10.0369H36.4236C39.3411 10.0369 41.7061 12.402 41.7061 15.3194V36.4236C41.7061 39.3411 39.3411 41.7061 36.4236 41.7061H15.3194C12.402 41.7061 10.0369 39.3411 10.0369 36.4236V10.0369Z" fill="white"/>
<path d="M15.8477 15.8477H31.1946C33.5285 15.8477 35.4206 17.7398 35.4206 20.0737V30.138C35.4206 33.0555 33.0555 35.4206 30.138 35.4206H20.0737C17.7398 35.4206 15.8477 33.5285 15.8477 31.1946V15.8477Z" fill="#3752FD"/>
<path d="M72.5803 17.4829C75.3388 17.4829 77.7049 17.9823 79.6786 18.981C81.6523 19.9798 83.1623 21.4185 84.2086 23.2971C85.255 25.1757 85.7781 27.411 85.7781 30.003C85.7781 32.5712 85.255 34.7946 84.2086 36.6732C83.1623 38.5281 81.6523 39.9548 79.6786 40.9536C77.7049 41.9286 75.3388 42.4161 72.5803 42.4161H65.1967V17.4829H72.5803ZM72.5803 40.3472C76.0522 40.3472 78.6917 39.4436 80.499 37.6363C82.33 35.8053 83.2456 33.2608 83.2456 30.003C83.2456 26.7214 82.33 24.165 80.499 22.334C78.6917 20.4791 76.0522 19.5517 72.5803 19.5517H67.6935V40.3472H72.5803ZM109.072 31.6795C109.072 32.5355 109.049 33.1895 109.001 33.6413H92.8427C92.914 35.1156 93.2707 36.376 93.9128 37.4223C94.5548 38.4686 95.399 39.2652 96.4453 39.8122C97.4916 40.3353 98.6331 40.5969 99.8696 40.5969C101.487 40.5969 102.842 40.2045 103.936 39.4198C105.054 38.6351 105.791 37.5769 106.148 36.2452H108.787C108.311 38.1476 107.289 39.7052 105.719 40.9179C104.174 42.1069 102.224 42.7014 99.8696 42.7014C98.0386 42.7014 96.3978 42.2972 94.9472 41.4886C93.4966 40.6563 92.3552 39.4911 91.5229 37.993C90.7144 36.4711 90.3101 34.6995 90.3101 32.6782C90.3101 30.6569 90.7144 28.8853 91.5229 27.3634C92.3314 25.8415 93.461 24.6763 94.9115 23.8678C96.3621 23.0593 98.0148 22.655 99.8696 22.655C101.724 22.655 103.341 23.0593 104.721 23.8678C106.124 24.6763 107.194 25.7702 107.931 27.1494C108.692 28.5048 109.072 30.0149 109.072 31.6795ZM106.54 31.6081C106.564 30.1575 106.266 28.921 105.648 27.8985C105.054 26.8759 104.233 26.1031 103.187 25.5799C102.141 25.0568 100.999 24.7952 99.7626 24.7952C97.9078 24.7952 96.3264 25.3897 95.0185 26.5787C93.7106 27.7677 92.9854 29.4442 92.8427 31.6081H106.54ZM121.631 39.9905L128.194 22.9404H130.833L123.022 42.4161H120.204L112.392 22.9404H115.067L121.631 39.9905ZM149.805 29.5749C151.256 29.8841 152.421 30.6094 153.301 31.7508C154.181 32.8684 154.621 34.1526 154.621 35.6031C154.621 37.6958 153.884 39.3603 152.409 40.5969C150.959 41.8097 148.925 42.4161 146.31 42.4161H134.646V17.3759H145.917C148.462 17.3759 150.447 17.9585 151.874 19.1237C153.325 20.2889 154.05 21.8703 154.05 23.8678C154.05 25.3421 153.658 26.5668 152.873 27.5418C152.112 28.5167 151.089 29.1945 149.805 29.5749ZM140.745 27.5061H144.74C145.739 27.5061 146.5 27.2921 147.023 26.864C147.57 26.4122 147.844 25.7583 147.844 24.9022C147.844 24.0461 147.57 23.3922 147.023 22.9404C146.5 22.4885 145.739 22.2626 144.74 22.2626H140.745V27.5061ZM145.24 37.4936C146.262 37.4936 147.047 37.2677 147.594 36.8159C148.165 36.3403 148.45 35.6626 148.45 34.7827C148.45 33.9029 148.153 33.2133 147.558 32.7139C146.987 32.2145 146.191 31.9648 145.168 31.9648H140.745V37.4936H145.24ZM168.289 42.7014C166.339 42.7014 164.579 42.2853 163.01 41.453C161.464 40.6207 160.239 39.4317 159.336 37.886C158.456 36.3403 158.016 34.533 158.016 32.4642C158.016 30.4191 158.468 28.6237 159.371 27.0781C160.275 25.5086 161.511 24.3077 163.081 23.4754C164.65 22.6431 166.41 22.227 168.36 22.227C170.31 22.227 172.07 22.6431 173.639 23.4754C175.209 24.3077 176.445 25.5086 177.349 27.0781C178.252 28.6237 178.704 30.4191 178.704 32.4642C178.704 34.5093 178.241 36.3165 177.313 37.886C176.41 39.4317 175.161 40.6207 173.568 41.453C171.998 42.2853 170.239 42.7014 168.289 42.7014ZM168.289 37.4223C169.454 37.4223 170.441 36.9943 171.249 36.1382C172.082 35.2821 172.498 34.0574 172.498 32.4642C172.498 30.8709 172.093 29.6463 171.285 28.7902C170.5 27.9341 169.525 27.5061 168.36 27.5061C167.171 27.5061 166.184 27.9341 165.399 28.7902C164.615 29.6225 164.222 30.8472 164.222 32.4642C164.222 34.0574 164.603 35.2821 165.364 36.1382C166.149 36.9943 167.123 37.4223 168.289 37.4223ZM181.798 32.4285C181.798 30.3835 182.178 28.5881 182.939 27.0424C183.724 25.4967 184.782 24.3077 186.114 23.4754C187.445 22.6431 188.931 22.227 190.572 22.227C191.975 22.227 193.2 22.5123 194.246 23.083C195.316 23.6538 196.137 24.4028 196.707 25.3302V22.5123H202.807V42.4161H196.707V39.5981C196.113 40.5256 195.281 41.2746 194.211 41.8453C193.164 42.4161 191.94 42.7014 190.537 42.7014C188.92 42.7014 187.445 42.2853 186.114 41.453C184.782 40.5969 183.724 39.396 182.939 37.8503C182.178 36.2809 181.798 34.4736 181.798 32.4285ZM196.707 32.4642C196.707 30.9423 196.279 29.7414 195.423 28.8615C194.591 27.9817 193.569 27.5418 192.356 27.5418C191.143 27.5418 190.109 27.9817 189.252 28.8615C188.42 29.7176 188.004 30.9066 188.004 32.4285C188.004 33.9504 188.42 35.1632 189.252 36.0668C190.109 36.9467 191.143 37.3866 192.356 37.3866C193.569 37.3866 194.591 36.9467 195.423 36.0668C196.279 35.187 196.707 33.9861 196.707 32.4642ZM214.389 25.8296C215.103 24.7357 215.995 23.8797 217.065 23.2614C218.135 22.6193 219.324 22.2983 220.632 22.2983V28.7545H218.955C217.433 28.7545 216.292 29.0875 215.531 29.7533C214.77 30.3953 214.389 31.5368 214.389 33.1776V42.4161H208.29V22.5123H214.389V25.8296ZM223.404 32.4285C223.404 30.3835 223.785 28.5881 224.546 27.0424C225.331 25.4967 226.389 24.3077 227.72 23.4754C229.052 22.6431 230.538 22.227 232.179 22.227C233.487 22.227 234.676 22.5004 235.746 23.0474C236.84 23.5943 237.696 24.3315 238.314 25.2589V16.0204H244.414V42.4161H238.314V39.5625C237.744 40.5137 236.923 41.2746 235.853 41.8453C234.807 42.4161 233.582 42.7014 232.179 42.7014C230.538 42.7014 229.052 42.2853 227.72 41.453C226.389 40.5969 225.331 39.396 224.546 37.8503C223.785 36.2809 223.404 34.4736 223.404 32.4285ZM238.314 32.4642C238.314 30.9423 237.886 29.7414 237.03 28.8615C236.198 27.9817 235.175 27.5418 233.963 27.5418C232.75 27.5418 231.715 27.9817 230.859 28.8615C230.027 29.7176 229.611 30.9066 229.611 32.4285C229.611 33.9504 230.027 35.1632 230.859 36.0668C231.715 36.9467 232.75 37.3866 233.963 37.3866C235.175 37.3866 236.198 36.9467 237.03 36.0668C237.886 35.187 238.314 33.9861 238.314 32.4642Z" fill="#00303C"/>
</svg>
